PathFileType	4	(X/Y/Z)	40_1_52_p1_0-484_filt_butterworth.trc
DataRate	CameraRate	NumFrames	NumMarkers	Units	OrigDataRate	OrigDataStartFrame	OrigNumFrames
59.0	59.0	5	27	m	59.0	0	484
Frame#	Time	RHip			RKnee			RAnkle			RBigToe			RSmallToe			RHeel			LHip			LKnee			LAnkle			LBigToe			LSmallToe			LHeel			Neck			Head			Nose			RShoulder			RElbow			RWrist			RThumb			RIndex			RPinky			LShoulder			LElbow			LWrist			LThumb			LIndex			LPinky			
		X1	Y1	Z1	X2	Y2	Z2	X3	Y3	Z3	X4	Y4	Z4	X5	Y5	Z5	X6	Y6	Z6	X7	Y7	Z7	X8	Y8	Z8	X9	Y9	Z9	X10	Y10	Z10	X11	Y11	Z11	X12	Y12	Z12	X13	Y13	Z13	X14	Y14	Z14	X15	Y15	Z15	X16	Y16	Z16	X17	Y17	Z17	X18	Y18	Z18	X19	Y19	Z19	X20	Y20	Z20	X21	Y21	Z21	X22	Y22	Z22	X23	Y23	Z23	X24	Y24	Z24	X25	Y25	Z25	X26	Y26	Z26	X27	Y27	Z27	
0	0.0	0.3010187247488596	0.5788528534941417	0.8213619628967707	0.3124343144794771	0.7382923595010709	1.2724975039787532	0.3197720040717938	0.8519287906143576	1.6630698576522436	0.3137836732742004	0.7257950209432342	1.7284106436544218	0.3785251643390904	0.7631953249910262	1.730198468447276	0.2792274024639541	0.9580709675677809	1.7306112581265327	0.12531450227087682	0.5733005065184843	0.8259555547768755	0.10417206310254468	0.7410731674259492	1.2537094727188822	0.09133613239559714	0.8580289138210737	1.6625368835409846	0.13871290205817294	0.7024025799444737	1.7115392251344783	0.07581738836881727	0.7359370406649276	1.7152690193986484	0.08933635648818843	0.9385676426745302	1.7289963054501207	0.2451292659744691	0.4598453383918442	0.3147469608209002	0.24847301755948775	0.37896004135733774	0.0877374201672181	0.2590241205525716	0.3286571535958081	0.22323406918525304	0.3744847426195199	0.4948516883390662	0.40051720211260994	0.40492131377959134	0.5593210994975751	0.6942611213108776	0.3047018930926953	0.5008133110383586	0.9074856906467912	0.22689599673647115	0.46501659353840985	0.9937544493512773	0.22637479382706274	0.46608114668512257	0.9981284114621838	0.24167654692500487	0.4830162915441617	0.9993991945218154	0.08676025145729926	0.4692982225532812	0.3951573136400263	0.08200472987495487	0.5104515652649466	0.6738920478796163	0.16932055013795996	0.4394758932971382	0.8970895886464875	0.24010303534330046	0.4626602283045885	0.9767006867763954	0.23935644908952508	0.4657447147011976	0.9937889393260138	0.21931969096689774	0.46814557403021895	0.999788559454141
1	0.0169491525423728	0.3013024246457582	0.5801344619961428	0.8236770051770462	0.3120936627087802	0.7386476970199894	1.273953047225414	0.31768554077619277	0.8538851976235675	1.6637924860525994	0.3104325789950777	0.7392963669047424	1.731412477033155	0.3745516735848292	0.7603986814843486	1.729535598344025	0.2778133683359225	0.9561645926197438	1.7268626002521394	0.12573753455368455	0.5728070067202612	0.8237410463624089	0.1041868127141542	0.7411485047598035	1.253765482090503	0.09167010171687803	0.857875889277859	1.65722595980741	0.13446416830638394	0.7122940794275738	1.7155341565860376	0.07576056292575209	0.7360407688735214	1.715235112006272	0.08934218248552278	0.9379572961984952	1.7286984644822203	0.24506356354911252	0.4587448435857723	0.3127266894917262	0.24947756052748848	0.38534552793453525	0.08671950664446129	0.2557703021041172	0.3345230032999635	0.2205333208119487	0.3721753254339719	0.49264272073920623	0.3961329925348205	0.40372598823974315	0.5643839367859655	0.6896606530859017	0.30024822635464743	0.5090458893673848	0.9087250246509843	0.2269588973862419	0.46499977207128157	0.9936871808753672	0.227169393790722	0.4705724741805902	0.998598097734246	0.24415632887042674	0.48499266812131636	0.9995006360069432	0.08687324561445373	0.46898000835720577	0.3951052664565689	0.08240341297503538	0.5094131084180831	0.6709902608086413	0.17159034325065547	0.4445316578674806	0.8996994139756864	0.24240227535320413	0.4637786964390614	0.9770881253127744	0.24062699428714615	0.466673746171015	0.9938490823281958	0.21986481069659347	0.472494957682814	1.0003889102632813
2	0.0338983050847457	0.3014927390141477	0.5808751311755922	0.8250357596396956	0.31178722983091867	0.739046411074954	1.2752025254764743	0.31612933191891035	0.8530661479472682	1.6635907979887823	0.30883188628226826	0.7497516343732452	1.7348600235629286	0.37159060988971154	0.7603270018105183	1.7297493165812987	0.27713393511894124	0.9525764336779805	1.723409338735291	0.12601623764863285	0.5725208212318387	0.8224234788259883	0.10419818202114287	0.7412030367043557	1.2538096616757826	0.09186186856772344	0.8577909367762132	1.6540715072965306	0.13185017741989952	0.7183614815075082	1.717974813071066	0.07571893512237839	0.7360830321493659	1.7151970130453662	0.08933399120133409	0.9376478246978859	1.728536819148925	0.2450214393282133	0.45809344480267167	0.31152519119132477	0.2504602000671486	0.38943643472151057	0.08606736189110288	0.25382008677097245	0.3381946406621205	0.21890491502402495	0.3707953471724582	0.4913243367860009	0.39353540041593793	0.4030188760292618	0.5673922403611005	0.6869157018901121	0.2981552252618833	0.514346015792894	0.9094852712822236	0.22694803941181535	0.46510534655736924	0.9936257951356257	0.22786632905382187	0.47498669724930054	0.9990386432673615	0.24543626182893327	0.4896143510646247	1.0000781527882725	0.08692720237824829	0.4687954703673018	0.395090007551397	0.08260402890519042	0.5093131504201394	0.6707981662810643	0.173213947976784	0.4492192326284545	0.9014194416990399	0.2435923768293901	0.4646235236324623	0.9779632338973678	0.24181037370525474	0.46758038583183315	0.9938921732959074	0.22040133190541178	0.47666800495675044	1.0009286934343125
3	0.0508474576271186	0.30155202951977755	0.5810927161234554	0.8253821175880821	0.31160797638467824	0.73942354698833	1.275988891857651	0.3153588753571638	0.8506792176567567	1.662849067553055	0.308882605222324	0.7554687706907699	1.7380284469061715	0.37065871305154546	0.7617918341340593	1.7303575165940919	0.27688847560921376	0.9477943693479489	1.7210808140822957	0.12611983134820345	0.5724883152909533	0.8220619798693116	0.10420555579348247	0.7412259427612781	1.2538414903560633	0.09190838016006729	0.8577714673686685	1.6531964358552038	0.13118918848056701	0.7198841021285688	1.718560577698225	0.07569511077210045	0.7360476987458359	1.7151489971664455	0.08930464311429097	0.9376998580551592	1.7285355817166046	0.24500765773610017	0.45792021965356455	0.3111913520157007	0.2516274601174373	0.3912224437117397	0.08576945926813999	0.2532983902544403	0.33939152638223	0.21843938894373421	0.37041038470779764	0.49096482171456934	0.39284000749023873	0.4028348798371339	0.5682072252482984	0.6861581533154754	0.2981855709231757	0.5162691833861106	0.9097308865104038	0.22685967190368553	0.46527447045538395	0.9935687681528464	0.22827539264048852	0.4781467443602383	0.9993037368209131	0.24499214644775788	0.4970516452291177	1.0011910774273731	0.0869254547378543	0.46873484280111155	0.395112313152215	0.08260254588468115	0.5101105666461121	0.6731903159243176	0.17348992280346526	0.4521005827018641	0.9020777232165594	0.24364037641139394	0.4651102595473843	0.9791786265533755	0.2425898251640711	0.4682345033778921	0.9939160893956143	0.22077918486274464	0.4795829908757243	1.0012616745077112
4	0.0677966101694915	0.3014805207708901	0.5811812266580004	0.8252644548609217	0.3114811743308331	0.739584605080674	1.2760967402884056	0.31520245709022265	0.8490940179194771	1.6623445156541696	0.3094294408847079	0.7571198436144321	1.7398773165041534	0.3715639579555337	0.7626741406872378	1.7306529544223812	0.27650586812981576	0.9439766739380786	1.7204960278249637	0.12611070749707426	0.5725812593558341	0.8221578340965234	0.10421127619066267	0.741210039370023	1.25386141226135	0.09189829404102708	0.8577700811096023	1.65335448740351	0.13207598428795464	0.7178466530135876	1.717692569683248	0.0756860426823254	0.7359662295697145	1.7151012897336686	0.08927185546935218	0.9378822227326735	1.728594680020144	0.24501168533787912	0.4579563689120525	0.3112508938994624	0.2529214447013165	0.39192860832233084	0.08562063036761872	0.253571967041711	0.33869416231666105	0.21861026306263528	0.37051120306565305	0.4911142614071978	0.39303475159891516	0.40290190803650766	0.5679828703443467	0.6863500532670612	0.298807855970668	0.5163013742519427	0.9097191948022353	0.22676977089057332	0.4653773812667008	0.9935186054842138	0.22837126452938894	0.4793866835511733	0.9993483357410128	0.24340507064161607	0.5044945981270107	1.0023831722645071	0.08691400846327955	0.4686808471069425	0.39514766701800697	0.0825322027469416	0.5110927617041372	0.6760480716509443	0.17259876148056505	0.452682506574832	0.9021172940390441	0.24325019026161548	0.46531526684224395	0.980135079101345	0.24284073329500258	0.4685149596249191	0.9939330614518083	0.2209115074895764	0.48070806094049445	1.0013430408594253
